<mxfile host="Electron" modified="2024-07-05T22:28:18.495Z" agent="Mozilla/5.0 (Windows NT 10.0; Win64; x64) AppleWebKit/537.36 (KHTML, like Gecko) draw.io/24.5.3 Chrome/124.0.6367.207 Electron/30.0.6 Safari/537.36" etag="hh2sz7xeGOY8CuoyCl26" version="24.5.3" type="device">
  <diagram id="C5RBs43oDa-KdzZeNtuy" name="Page-1">
    <mxGraphModel dx="1183" dy="685" grid="1" gridSize="10" guides="1" tooltips="1" connect="1" arrows="1" fold="1" page="1" pageScale="1" pageWidth="1169" pageHeight="827" math="0" shadow="0">
      <root>
        <mxCell id="WIyWlLk6GJQsqaUBKTNV-0" />
        <mxCell id="WIyWlLk6GJQsqaUBKTNV-1" parent="WIyWlLk6GJQsqaUBKTNV-0" />
        <mxCell id="oD_gXktLYb_0sIHfAOCf-16" value="" style="rounded=0;whiteSpace=wrap;html=1;" vertex="1" parent="WIyWlLk6GJQsqaUBKTNV-1">
          <mxGeometry width="600" height="680" as="geometry" />
        </mxCell>
        <mxCell id="oD_gXktLYb_0sIHfAOCf-0" value="" style="rounded=0;whiteSpace=wrap;html=1;fillColor=#ffe6cc;strokeColor=#d79b00;" vertex="1" parent="WIyWlLk6GJQsqaUBKTNV-1">
          <mxGeometry x="80" y="60" width="160" height="240" as="geometry" />
        </mxCell>
        <mxCell id="oD_gXktLYb_0sIHfAOCf-1" value="" style="rounded=0;whiteSpace=wrap;html=1;fillColor=#fff2cc;strokeColor=#d6b656;" vertex="1" parent="WIyWlLk6GJQsqaUBKTNV-1">
          <mxGeometry x="360" y="60" width="160" height="240" as="geometry" />
        </mxCell>
        <mxCell id="oD_gXktLYb_0sIHfAOCf-2" value="" style="rounded=0;whiteSpace=wrap;html=1;fillColor=#d5e8d4;strokeColor=#82b366;" vertex="1" parent="WIyWlLk6GJQsqaUBKTNV-1">
          <mxGeometry x="360" y="380" width="160" height="240" as="geometry" />
        </mxCell>
        <mxCell id="oD_gXktLYb_0sIHfAOCf-3" value="" style="rounded=0;whiteSpace=wrap;html=1;fillColor=#dae8fc;strokeColor=#6c8ebf;" vertex="1" parent="WIyWlLk6GJQsqaUBKTNV-1">
          <mxGeometry x="80" y="380" width="160" height="240" as="geometry" />
        </mxCell>
        <mxCell id="oD_gXktLYb_0sIHfAOCf-4" value="ADMIN" style="text;html=1;align=center;verticalAlign=middle;resizable=0;points=[];autosize=1;strokeColor=none;fillColor=none;" vertex="1" parent="WIyWlLk6GJQsqaUBKTNV-1">
          <mxGeometry x="130" y="70" width="60" height="30" as="geometry" />
        </mxCell>
        <mxCell id="oD_gXktLYb_0sIHfAOCf-5" value="API" style="text;html=1;align=center;verticalAlign=middle;resizable=0;points=[];autosize=1;strokeColor=none;fillColor=none;" vertex="1" parent="WIyWlLk6GJQsqaUBKTNV-1">
          <mxGeometry x="420" y="70" width="40" height="30" as="geometry" />
        </mxCell>
        <mxCell id="oD_gXktLYb_0sIHfAOCf-6" value="QUEUE" style="text;html=1;align=center;verticalAlign=middle;resizable=0;points=[];autosize=1;strokeColor=none;fillColor=none;" vertex="1" parent="WIyWlLk6GJQsqaUBKTNV-1">
          <mxGeometry x="125" y="390" width="70" height="30" as="geometry" />
        </mxCell>
        <mxCell id="oD_gXktLYb_0sIHfAOCf-7" value="PYTHON" style="text;html=1;align=center;verticalAlign=middle;resizable=0;points=[];autosize=1;strokeColor=none;fillColor=none;" vertex="1" parent="WIyWlLk6GJQsqaUBKTNV-1">
          <mxGeometry x="405" y="390" width="70" height="30" as="geometry" />
        </mxCell>
        <mxCell id="oD_gXktLYb_0sIHfAOCf-11" style="edgeStyle=orthogonalEdgeStyle;rounded=1;orthogonalLoop=1;jettySize=auto;html=1;flowAnimation=1;curved=0;" edge="1" parent="WIyWlLk6GJQsqaUBKTNV-1" source="oD_gXktLYb_0sIHfAOCf-8" target="oD_gXktLYb_0sIHfAOCf-10">
          <mxGeometry relative="1" as="geometry" />
        </mxCell>
        <mxCell id="oD_gXktLYb_0sIHfAOCf-8" value="SOLICITA UMA TRASCRIÇÃO PASSANDO O id DO VÍDEO" style="rounded=1;whiteSpace=wrap;html=1;" vertex="1" parent="WIyWlLk6GJQsqaUBKTNV-1">
          <mxGeometry x="100" y="130" width="120" height="60" as="geometry" />
        </mxCell>
        <mxCell id="oD_gXktLYb_0sIHfAOCf-10" value="Vai no Banco e pega a URL do Vídeo e coloca na fila" style="rounded=1;whiteSpace=wrap;html=1;" vertex="1" parent="WIyWlLk6GJQsqaUBKTNV-1">
          <mxGeometry x="380" y="130" width="120" height="60" as="geometry" />
        </mxCell>
        <mxCell id="oD_gXktLYb_0sIHfAOCf-12" style="edgeStyle=orthogonalEdgeStyle;rounded=1;orthogonalLoop=1;jettySize=auto;html=1;exitX=0;exitY=0.75;exitDx=0;exitDy=0;entryX=1;entryY=0.5;entryDx=0;entryDy=0;flowAnimation=1;curved=0;" edge="1" parent="WIyWlLk6GJQsqaUBKTNV-1" source="oD_gXktLYb_0sIHfAOCf-10" target="oD_gXktLYb_0sIHfAOCf-18">
          <mxGeometry relative="1" as="geometry">
            <mxPoint x="300" y="390" as="targetPoint" />
          </mxGeometry>
        </mxCell>
        <mxCell id="oD_gXktLYb_0sIHfAOCf-14" value="Vai na queue verificar se tem alguma tarefa pendente" style="rounded=1;whiteSpace=wrap;html=1;" vertex="1" parent="WIyWlLk6GJQsqaUBKTNV-1">
          <mxGeometry x="370" y="470" width="140" height="60" as="geometry" />
        </mxCell>
        <mxCell id="oD_gXktLYb_0sIHfAOCf-18" value="videos-to-transcribe" style="rounded=0;whiteSpace=wrap;html=1;" vertex="1" parent="WIyWlLk6GJQsqaUBKTNV-1">
          <mxGeometry x="100" y="440" width="120" height="20" as="geometry" />
        </mxCell>
        <mxCell id="oD_gXktLYb_0sIHfAOCf-15" style="edgeStyle=orthogonalEdgeStyle;rounded=0;orthogonalLoop=1;jettySize=auto;html=1;flowAnimation=1;exitX=0.483;exitY=1.1;exitDx=0;exitDy=0;entryX=0;entryY=0.5;entryDx=0;entryDy=0;exitPerimeter=0;" edge="1" parent="WIyWlLk6GJQsqaUBKTNV-1" source="oD_gXktLYb_0sIHfAOCf-18" target="oD_gXktLYb_0sIHfAOCf-14">
          <mxGeometry relative="1" as="geometry">
            <Array as="points">
              <mxPoint x="158" y="500" />
            </Array>
          </mxGeometry>
        </mxCell>
      </root>
    </mxGraphModel>
  </diagram>
</mxfile>
